<svg width="32" height="32" viewBox="0 0 32 32" fill="none" xmlns="http://www.w3.org/2000/svg">
<g opacity="0.3">
<path d="M16 5.97334C14.9926 5.97334 14.0078 6.27206 13.1702 6.83172C12.3327 7.39139 11.6798 8.18686 11.2943 9.11754C10.9088 10.0482 10.808 11.0723 11.0045 12.0603C11.201 13.0483 11.6861 13.9559 12.3984 14.6682C13.1107 15.3805 14.0183 15.8656 15.0063 16.0621C15.9943 16.2587 17.0184 16.1578 17.9491 15.7723C18.8798 15.3868 19.6752 14.734 20.2349 13.8964C20.7946 13.0588 21.0933 12.074 21.0933 11.0667C21.0933 9.71584 20.5567 8.42033 19.6015 7.46515C18.6463 6.50996 17.3508 5.97334 16 5.97334ZM16 14.3822C15.3442 14.3822 14.7032 14.1878 14.1579 13.8235C13.6127 13.4591 13.1877 12.9413 12.9368 12.3355C12.6858 11.7296 12.6202 11.063 12.7481 10.4198C12.876 9.77669 13.1918 9.18591 13.6555 8.72222C14.1192 8.25854 14.71 7.94276 15.3531 7.81483C15.9963 7.6869 16.6629 7.75256 17.2688 8.0035C17.8746 8.25445 18.3924 8.67941 18.7567 9.22465C19.1211 9.76989 19.3155 10.4109 19.3155 11.0667C19.3132 11.9445 18.9628 12.7855 18.3413 13.4054C17.7197 14.0253 16.8778 14.3733 16 14.3733V14.3822Z" fill="white"/>
<path d="M16 1.77777C13.2313 1.78008 10.576 2.87794 8.61409 4.83154C6.65216 6.78515 5.54302 9.43576 5.52893 12.2044C5.52893 16.3555 7.85782 19.8311 9.56449 22.3644L9.8756 22.8267C11.5736 25.2877 13.3952 27.6611 15.3334 29.9378L16.0089 30.7289L16.6845 29.9378C18.6224 27.6609 20.444 25.2875 22.1423 22.8267L22.4534 22.3556C24.1511 19.8222 26.48 16.3555 26.48 12.2044C26.4659 9.43422 25.3556 6.78227 23.3917 4.82841C21.4279 2.87455 18.7703 1.77774 16 1.77777ZM20.9689 21.3333L20.6489 21.8044C19.12 24.0978 17.0934 26.6667 16 27.9378C14.9512 26.6667 12.88 24.0978 11.3512 21.8044L11.04 21.3333C9.46671 18.9867 7.30671 15.7778 7.30671 12.1689C7.30671 11.0273 7.53157 9.89681 7.96845 8.84209C8.40533 7.78736 9.04568 6.82902 9.85293 6.02177C10.6602 5.21452 11.6185 4.57417 12.6732 4.13729C13.728 3.70041 14.8584 3.47555 16 3.47555C17.1417 3.47555 18.2721 3.70041 19.3268 4.13729C20.3816 4.57417 21.3399 5.21452 22.1472 6.02177C22.9544 6.82902 23.5948 7.78736 24.0316 8.84209C24.4685 9.89681 24.6934 11.0273 24.6934 12.1689C24.6934 15.8133 22.5423 19.0222 20.9689 21.3333Z" fill="white"/>
</g>
</svg>
